<svg width="51" height="68" viewBox="0 0 51 68" fill="none" xmlns="http://www.w3.org/2000/svg">
<path d="M49.3213 22.6228C49.3213 22.5428 49.2414 22.4629 49.1614 22.383C48.681 21.3879 48.0912 20.4495 47.4028 19.5852C42.2301 13.0655 36.2693 7.21214 29.6567 2.15883C27.6798 0.733455 25.2991 -0.0227718 22.8621 0.000522442H0.799373C0.587366 0.000522442 0.384042 0.0847416 0.23413 0.234653C0.0842188 0.384565 0 0.587888 0 0.799895V66.5084C0 66.7204 0.0842188 66.9237 0.23413 67.0736C0.384042 67.2235 0.587366 67.3077 0.799373 67.3077H50.2006C50.4126 67.3077 50.616 67.2235 50.7659 67.0736C50.9158 66.9237 51 66.7204 51 66.5084V29.8171C51.0039 27.3215 50.4293 24.859 49.3213 22.6228ZM43.2461 17.0272C39.8772 15.7667 36.2254 15.4624 32.6944 16.1479C33.2487 12.487 32.7497 8.74402 31.2555 5.35632C35.5448 8.93443 39.5534 12.8361 43.2461 17.0272ZM49.4013 65.709H1.59875V1.59927H22.8621C23.9808 1.5552 25.094 1.77883 26.1089 2.25154C27.1239 2.72426 28.0113 3.43241 28.6975 4.31714C31.4154 7.75444 31.7351 13.1102 30.9357 17.0272C30.8937 17.157 30.8944 17.2968 30.9375 17.4263C30.9806 17.5557 31.0641 17.668 31.1756 17.7466C31.2738 17.829 31.3905 17.8866 31.5157 17.9144C31.641 17.9422 31.771 17.9395 31.895 17.9065C34.016 17.4161 36.1998 17.2543 38.3699 17.4269C42.7665 17.8265 45.964 19.745 47.8025 23.1823C48.8454 25.239 49.3929 27.5111 49.4013 29.8171V65.709Z" fill="#A3A3A3"/>
<path d="M14.8685 48.8424C14.2681 48.5639 13.6117 48.4271 12.95 48.4427C12.3013 48.4102 11.6529 48.5144 11.047 48.7485C10.4411 48.9826 9.89113 49.3414 9.43277 49.8017C8.96589 50.2382 8.60179 50.7731 8.36679 51.3675C8.13178 51.9619 8.03172 52.6011 8.07383 53.239C8.02567 54.4327 8.42475 55.6014 9.19296 56.5164C9.58813 56.9437 10.0719 57.2796 10.6104 57.5005C11.1488 57.7214 11.7291 57.8221 12.3105 57.7954C12.7915 57.7982 13.2676 57.7 13.7083 57.5073C14.1489 57.3145 14.5442 57.0314 14.8685 56.6763V57.6355H17.1867V43.6465H14.8685V48.8424ZM14.8685 54.7578C14.3143 55.3069 13.5701 55.6217 12.7901 55.6371C12.1717 55.6339 11.5753 55.4067 11.1115 54.9976C10.6786 54.4847 10.4508 53.8298 10.472 53.159C10.4683 52.8018 10.5373 52.4475 10.6747 52.1177C10.8121 51.7879 11.0151 51.4895 11.2713 51.2405C11.7913 50.8203 12.4414 50.5942 13.1099 50.601C13.7399 50.6007 14.3545 50.7962 14.8685 51.1606V54.7578Z" fill="#A3A3A3"/>
<path d="M23.2619 48.4427C22.6075 48.4075 21.9527 48.5024 21.3352 48.7219C20.7178 48.9415 20.15 49.2813 19.6647 49.7217C19.2328 50.1802 18.8971 50.7206 18.6774 51.3109C18.4578 51.9013 18.3586 52.5297 18.3857 53.159C18.3603 53.7761 18.4605 54.3919 18.6804 54.9691C18.9002 55.5462 19.2351 56.0727 19.6647 56.5164C20.6368 57.4273 21.9303 57.916 23.2619 57.8753C23.9096 57.8982 24.5552 57.7895 25.1597 57.556C25.7642 57.3224 26.3151 56.9688 26.7792 56.5164C27.2353 56.0886 27.5931 55.5668 27.8278 54.9871C28.0624 54.4074 28.1683 53.7837 28.1381 53.159C28.1694 52.5223 28.0643 51.8863 27.8299 51.2936C27.5956 50.7008 27.2373 50.1649 26.7792 49.7217C26.3085 49.2837 25.7547 48.9447 25.1504 48.725C24.5462 48.5053 23.904 48.4093 23.2619 48.4427ZM25.0205 54.9976C24.7902 55.2296 24.5162 55.4137 24.2144 55.5394C23.9126 55.6651 23.5889 55.7298 23.2619 55.7298C22.935 55.7298 22.6113 55.6651 22.3094 55.5394C22.0076 55.4137 21.7336 55.2296 21.5033 54.9976C21.2675 54.7541 21.0825 54.4661 20.959 54.1505C20.8355 53.8349 20.776 53.4978 20.7839 53.159C20.7664 52.819 20.8215 52.4793 20.9456 52.1623C21.0696 51.8453 21.2597 51.5583 21.5033 51.3205C21.7336 51.0884 22.0076 50.9043 22.3094 50.7786C22.6113 50.6529 22.935 50.5883 23.2619 50.5883C23.5889 50.5883 23.9126 50.6529 24.2144 50.7786C24.5162 50.9043 24.7902 51.0884 25.0205 51.3205C25.2641 51.5583 25.4542 51.8453 25.5782 52.1623C25.7023 52.4793 25.7574 52.819 25.74 53.159C25.7478 53.4978 25.6883 53.8349 25.5648 54.1505C25.4413 54.4661 25.2563 54.7541 25.0205 54.9976Z" fill="#A3A3A3"/>
<path d="M36.1317 54.5973C35.8546 54.9465 35.5022 55.2285 35.1008 55.4223C34.6994 55.6161 34.2593 55.7166 33.8136 55.7164C33.1336 55.708 32.4801 55.4522 31.975 54.997C31.7393 54.7535 31.5543 54.4655 31.4308 54.1499C31.3072 53.8343 31.2477 53.4973 31.2556 53.1584C31.2327 52.8179 31.2854 52.4766 31.4098 52.1587C31.5341 51.8409 31.7271 51.5545 31.975 51.3199C32.4515 50.8699 33.0784 50.6135 33.7336 50.6004C34.148 50.5769 34.5626 50.6433 34.949 50.7951C35.3353 50.9469 35.6843 51.1804 35.9719 51.4798L37.091 49.6412C36.0694 48.7757 34.7493 48.3453 33.4139 48.4421C32.8018 48.4183 32.1919 48.5274 31.626 48.762C31.0602 48.9966 30.552 49.3511 30.1364 49.8011C29.6924 50.2381 29.3428 50.7615 29.109 51.3389C28.8753 51.9164 28.7625 52.5356 28.7775 53.1584C28.7473 53.7831 28.8532 54.4068 29.0878 54.9865C29.3224 55.5662 29.6802 56.088 30.1364 56.5158C30.6005 56.9682 31.1514 57.3218 31.7559 57.5554C32.3604 57.789 33.006 57.8976 33.6537 57.8747C34.3387 57.9262 35.0258 57.8072 35.6535 57.5282C36.2812 57.2492 36.8301 56.819 37.2509 56.276L36.1317 54.5973Z" fill="#A3A3A3"/>
</svg>
