    <svg width="15" height="10" viewBox="0 0 15 10" fill="none" xmlns="http://www.w3.org/2000/svg">
                <path d="M14.7855 5.31608H14.8253L13.3246 2.37553C13.0644 1.90917 12.6551 1.55132 12.1672 1.36362C12.0002 0.956547 11.7204 0.609785 11.3631 0.367115C11.0058 0.124445 10.587 -0.00325376 10.1596 0.000140065C9.73219 0.00353389 9.31534 0.137868 8.96166 0.386184C8.60799 0.634499 8.33335 0.985664 8.17241 1.39535C7.96576 1.28781 7.73766 1.2318 7.50635 1.2318C7.27504 1.2318 7.04694 1.28781 6.84029 1.39535C6.67854 0.982979 6.40155 0.629922 6.04477 0.381351C5.68799 0.13278 5.26764 0 4.83751 0C4.40738 0 3.98703 0.13278 3.63025 0.381351C3.27347 0.629922 2.99648 0.982979 2.83473 1.39535C2.37422 1.59054 1.99002 1.93947 1.74328 2.38663L0.573651 4.59443C0.288111 5.03178 0.10294 5.53086 0.0322772 6.05357C-0.0383852 6.57627 0.00732956 7.10876 0.165931 7.6104C0.324532 8.11203 0.591826 8.56953 0.947402 8.94797C1.30298 9.3264 1.73743 9.61576 2.21759 9.79396C2.69775 9.97215 3.21092 10.0345 3.71791 9.97614C4.22489 9.91781 4.7123 9.74039 5.1429 9.45742C5.5735 9.17445 5.93591 8.79342 6.20245 8.34341C6.469 7.8934 6.63264 7.38633 6.68086 6.8609C6.69131 6.7518 6.69642 6.64222 6.69619 6.53259C6.69648 6.29986 6.6744 6.06768 6.63028 5.83948C6.60064 5.69699 6.56224 5.5566 6.51531 5.41918C6.60513 5.22822 6.74504 5.06725 6.91906 4.95464C7.09308 4.84203 7.2942 4.78231 7.49945 4.78231C7.70471 4.78231 7.90582 4.84203 8.07984 4.95464C8.25386 5.06725 8.39377 5.22822 8.4836 5.41918C8.43665 5.55714 8.39825 5.69805 8.36863 5.84107C8.3245 6.06927 8.30242 6.30145 8.30271 6.53417C8.30278 6.64011 8.3079 6.74597 8.31804 6.85139C8.36151 7.34343 8.50622 7.82015 8.74244 8.24955C8.97867 8.67896 9.30095 9.05111 9.68764 9.34102C10.0743 9.63093 10.5165 9.8319 10.9845 9.93043C11.4524 10.029 11.9353 10.0228 12.4008 9.91227C12.8662 9.80178 13.3034 9.58954 13.6831 9.28981C14.0627 8.99007 14.376 8.60978 14.6018 8.17445C14.8277 7.73912 14.9609 7.25883 14.9926 6.76583C15.0243 6.27283 14.9537 5.77852 14.7855 5.31608ZM3.34673 8.85616C2.93061 8.85464 2.52308 8.73351 2.16961 8.50631C1.81614 8.27911 1.53063 7.95477 1.34494 7.56946C1.15925 7.18416 1.08068 6.75305 1.118 6.32424C1.15531 5.89543 1.30705 5.48578 1.55627 5.14099C1.80549 4.7962 2.1424 4.52984 2.52941 4.37161C2.91642 4.21339 3.33831 4.16954 3.748 4.24494C4.1577 4.32034 4.53909 4.51203 4.84962 4.79864C5.16015 5.08524 5.38762 5.45547 5.50664 5.86803C5.57009 6.08342 5.60213 6.30741 5.60168 6.53259C5.60005 7.14997 5.36167 7.74145 4.93887 8.17711C4.51607 8.61278 3.94344 8.85701 3.34673 8.85616ZM11.6522 8.85616C11.0557 8.85659 10.4835 8.61217 10.061 8.17655C9.63856 7.74093 9.40038 7.1497 9.39876 6.53259C9.39765 6.30644 9.42916 6.08138 9.49227 5.86486C9.63354 5.38573 9.91954 4.96608 10.3083 4.66749C10.697 4.3689 11.168 4.2071 11.6522 4.20584C11.9583 4.20536 12.2613 4.26985 12.5423 4.39535C12.8234 4.52084 13.0766 4.70465 13.2863 4.93543H13.2955L13.412 5.08293C13.6767 5.42497 13.8424 5.83751 13.8901 6.27289C13.9377 6.70827 13.8653 7.14871 13.6813 7.54333C13.4973 7.93795 13.209 8.27063 12.85 8.50294C12.4909 8.73525 12.0757 8.85771 11.6522 8.85616Z" fill="#176BFB" />
              </svg>