<svg width="18" height="18" viewBox="0 0 18 18" fill="none" xmlns="http://www.w3.org/2000/svg">
                    <path d="M3.99023 10.8775L3.36445 13.2154L1.07578 13.2646C0.386719 11.9955 0 10.5435 0 9.00019C0 7.50605 0.362109 6.0998 1.00547 4.8623L3.04453 5.23496L3.9375 7.25996C3.75117 7.80488 3.64922 8.38847 3.64922 9.00019C3.64922 9.66113 3.76875 10.2939 3.99023 10.8775Z" fill="#FBBB00" />
                    <path d="M17.8417 7.31934C17.9436 7.86426 17.9999 8.42676 17.9999 8.99981C17.9999 9.64317 17.9331 10.2725 17.803 10.8807C17.3635 12.9443 16.221 14.7443 14.6354 16.0205L12.069 15.8904L11.7069 13.6229C12.7581 13.0041 13.5807 12.0408 14.0132 10.8842H9.19678V7.31934H14.08H17.8417Z" fill="#518EF8" />
                    <path d="M14.6355 16.0168C13.0922 17.2578 11.134 17.9996 9 17.9996C5.57227 17.9996 2.59102 16.0836 1.07227 13.2641L3.99023 10.877C4.74961 12.9055 6.70781 14.3504 9 14.3504C9.98438 14.3504 10.909 14.0832 11.7035 13.6192L14.6355 16.0168Z" fill="#28B446" />
                    <path d="M14.7444 2.0707L11.83 4.45781C11.0108 3.94453 10.0405 3.64922 8.9999 3.64922C6.65498 3.64922 4.66162 5.16094 3.9374 7.25977L1.00537 4.85859C2.50303 1.97227 5.52295 0 8.9999 0C11.1831 0 13.187 0.776953 14.7444 2.0707Z" fill="#F14336" />
                  </svg>