<svg width="15" height="16" viewBox="0 0 15 15" fill="none" xmlns="http://www.w3.org/2000/svg">
                      <path d="M5.40732 7.23624C5.40732 5.91636 6.47986 4.8461 7.80327 4.8461C9.12667 4.8461 10.1998 5.91636 10.1998 7.23624C10.1998 8.55611 9.12667 9.62637 7.80327 9.62637C6.47986 9.62637 5.40732 8.55611 5.40732 7.23624ZM4.11179 7.23624C4.11179 9.26962 5.76445 10.9179 7.80327 10.9179C9.84209 10.9179 11.4948 9.26962 11.4948 7.23624C11.4948 5.20285 9.84209 3.5546 7.80327 3.5546C5.76445 3.5546 4.11179 5.20285 4.11179 7.23624ZM10.7782 3.40866C10.7782 3.88356 11.1643 4.26927 11.6411 4.26927C12.1173 4.26927 12.504 3.88356 12.504 3.40866C12.504 2.93376 12.1178 2.54863 11.6411 2.54863C11.1643 2.54863 10.7782 2.93376 10.7782 3.40866ZM4.89863 13.0723C4.19773 13.0404 3.81679 12.924 3.56361 12.8256C3.22797 12.6953 2.98872 12.5401 2.7367 12.2893C2.48526 12.0385 2.32905 11.7999 2.19898 11.4652C2.10026 11.2127 1.98354 10.8327 1.9516 10.1337C1.91676 9.37792 1.90979 9.15089 1.90979 7.23624C1.90979 5.32158 1.91734 5.09513 1.9516 4.33877C1.98354 3.63974 2.10084 3.2604 2.19898 3.00731C2.32963 2.67256 2.48526 2.43396 2.7367 2.18261C2.98814 1.93184 3.22739 1.77605 3.56361 1.64632C3.81679 1.54786 4.19773 1.43145 4.89863 1.3996C5.65644 1.36485 5.88407 1.3579 7.80327 1.3579C9.72305 1.3579 9.9501 1.36543 10.7085 1.3996C11.4094 1.43145 11.7897 1.54844 12.0435 1.64632C12.3792 1.77605 12.6184 1.93184 12.8704 2.18261C13.1219 2.43338 13.2775 2.67256 13.4081 3.00731C13.5069 3.25982 13.6236 3.63974 13.6555 4.33877C13.6904 5.09513 13.6973 5.32158 13.6973 7.23624C13.6973 9.15032 13.6904 9.37734 13.6555 10.1337C13.6236 10.8327 13.5063 11.2127 13.4081 11.4652C13.2775 11.7999 13.1219 12.0385 12.8704 12.2893C12.619 12.5401 12.3792 12.6953 12.0435 12.8256C11.7903 12.924 11.4094 13.0404 10.7085 13.0723C9.95068 13.107 9.72305 13.114 7.80327 13.114C5.88407 13.114 5.65644 13.107 4.89863 13.0723ZM4.8394 0.109842C4.07404 0.144591 3.55142 0.265633 3.09441 0.442851C2.62172 0.625862 2.22104 0.87142 1.82094 1.26987C1.42142 1.66832 1.17521 2.06794 0.99171 2.53994C0.814017 2.99573 0.692652 3.51696 0.65781 4.28027C0.622388 5.04475 0.614258 5.28915 0.614258 7.23624C0.614258 9.18333 0.622388 9.42773 0.65781 10.1922C0.692652 10.9555 0.814017 11.4767 0.99171 11.9325C1.17521 12.404 1.42084 12.8041 1.82094 13.2026C2.22046 13.6011 2.62114 13.846 3.09441 14.0296C3.552 14.2068 4.07404 14.3279 4.8394 14.3626C5.6065 14.3974 5.85097 14.4061 7.80327 14.4061C9.75615 14.4061 10.0006 14.398 10.7671 14.3626C11.5325 14.3279 12.0551 14.2068 12.5121 14.0296C12.9848 13.846 13.3855 13.6011 13.7856 13.2026C14.1851 12.8041 14.4307 12.404 14.6148 11.9325C14.7925 11.4767 14.9145 10.9555 14.9487 10.1922C14.9836 9.42715 14.9917 9.18333 14.9917 7.23624C14.9917 5.28915 14.9836 5.04475 14.9487 4.28027C14.9139 3.51696 14.7925 2.99573 14.6148 2.53994C14.4307 2.06851 14.1851 1.6689 13.7856 1.26987C13.3861 0.87142 12.9848 0.625862 12.5127 0.442851C12.0551 0.265633 11.5325 0.144012 10.7677 0.109842C10.0012 0.0750934 9.75615 0.0664062 7.80385 0.0664062C5.85097 0.0664062 5.6065 0.0745143 4.8394 0.109842Z" fill="white" />
                    </svg>