  <svg width="50" height="33" viewBox="0 0 50 33" fill="none" xmlns="http://www.w3.org/2000/svg">
                <path d="M49.9364 26.9693L35.5643 12.5972C36.5499 11.1584 37.0158 9.42667 36.885 7.68755C36.7541 5.94844 36.0344 4.30586 34.8446 3.03076C33.6547 1.75565 32.0658 0.924174 30.3399 0.673484C28.614 0.422793 26.8542 0.767859 25.3507 1.65177L16.3682 1.45215L-0.000107115 17.8204L14.738 32.5585L31.1062 16.1902L31.1062 15.7245C31.9878 15.4975 32.8216 15.1144 33.5681 14.5933L39.2904 20.3156L35.2316 24.3744L42.4509 31.5937L46.5097 27.5349L47.9403 28.9654L49.9364 26.9693ZM3.99215 17.8204L17.5326 4.28L28.0455 4.54615L28.2451 12.9964C27.5461 12.8537 26.8872 12.5583 26.3155 12.1314C26.7339 11.1426 26.7864 10.037 26.4634 9.01297C26.1405 7.98894 25.4633 7.11346 24.5533 6.54351C23.6434 5.97356 22.5601 5.74643 21.4978 5.90286C20.4355 6.05929 19.4637 6.58904 18.7567 7.39711C18.0496 8.20518 17.6535 9.23871 17.6395 10.3124C17.6255 11.386 17.9944 12.4295 18.6801 13.2558C19.3658 14.0821 20.3234 14.6371 21.3812 14.8212C22.4391 15.0053 23.5279 14.8066 24.4525 14.2606C25.3564 14.9887 26.4146 15.5008 27.5465 15.7577L14.738 28.5662L3.99215 17.8204ZM21.5914 8.80456C21.6667 9.93902 21.9964 11.042 22.5562 12.0316C22.1452 12.1079 21.7206 12.0296 21.364 11.8118C21.0073 11.5939 20.7438 11.2519 20.6241 10.8515C20.5044 10.4511 20.5369 10.0205 20.7155 9.64268C20.894 9.26481 21.206 8.9663 21.5914 8.80456ZM30.8401 3.68116C31.7853 3.99866 32.6095 4.59998 33.2004 5.40309C33.7912 6.20621 34.12 7.17205 34.1418 8.16887C34.1637 9.1657 33.8775 10.145 33.3223 10.9732C32.7672 11.8014 31.9701 12.4382 31.0397 12.7968L30.8401 3.68116ZM42.4509 27.6014L39.2238 24.3744L41.2865 22.3117L44.5136 25.5388L42.4509 27.6014Z" fill="#13E7A2" />
              </svg>