<svg width="18" height="18" viewBox="0 0 9 10" fill="none" xmlns="http://www.w3.org/2000/svg">
              <path d="M7.75561 8.35901C7.69371 8.40276 7.64686 8.43498 7.68037 8.54045C7.9254 9.30859 7.36439 9.88533 6.86458 9.97497C6.78566 9.98902 6.70592 9.9962 6.62605 9.99646C5.30618 9.99763 3.98614 10.0049 2.6661 9.9945C1.83987 9.98786 1.23645 9.55038 0.86985 8.70138C0.747079 8.41662 0.696808 8.10863 0.696808 7.79106C0.696808 7.02923 0.696808 6.26754 0.696808 5.50598C0.694475 5.0342 0.826039 4.57427 1.07179 4.19508C1.85048 2.97377 2.6299 1.75278 3.41007 0.532113C3.48958 0.408093 3.57576 0.283683 3.67836 0.186421C3.98101 -0.101266 4.41874 -0.0495094 4.68908 0.296964C4.97429 0.662187 5.04662 1.08502 4.88845 1.53501C4.65334 2.20374 4.39703 2.86309 4.14978 3.52557C4.13644 3.56131 4.12379 3.59705 4.10207 3.65682C4.16448 3.65682 4.20466 3.65682 4.24639 3.65682C5.06258 3.66346 5.87883 3.66997 6.69513 3.67635C6.96119 3.6783 7.21238 3.73494 7.42799 3.9281C7.63848 4.11696 7.74775 4.36324 7.73902 4.67026C7.73509 4.80463 7.70978 4.93763 7.70175 5.07201C7.6997 5.10579 7.71765 5.16146 7.74056 5.17435C8.23866 5.45578 8.30312 6.27665 7.9213 6.7284C7.91319 6.73723 7.90633 6.74744 7.90095 6.75867C7.98645 6.9364 8.08767 7.08815 8.13401 7.26022C8.24943 7.6895 8.09161 8.12035 7.75561 8.35901Z" fill="#176BFB" />
            </svg>