   <svg width="18" height="13" viewBox="0 0 18 13" fill="none" xmlns="http://www.w3.org/2000/svg">
                <path d="M18 11.5099V13H0V10.6566C0.0237264 10.4237 0.107858 10.2009 0.24425 10.0097C0.380642 9.81842 0.564674 9.66522 0.778528 9.5649C1.14475 9.38646 1.5275 9.24328 1.92147 9.13734C1.94356 9.12642 3.15644 8.80984 3.73436 8.50781L3.77669 8.48234C3.83781 8.44308 3.8878 8.38906 3.92194 8.32539C3.95607 8.26172 3.97323 8.1905 3.97178 8.11845V7.40887C2.04294 7.42525 1.47607 6.60832 1.47607 6.60832C1.47607 6.60832 2.58037 6.59195 2.51043 3.71724C2.44049 0.842527 3.78221 0.367654 4.28282 0.180252C5.73865 -0.365578 6.46933 0.502293 6.46933 0.502293C8.15521 0.347641 8.62086 2.1689 8.41472 4.24487C8.20859 6.32085 9.36074 6.64289 9.36074 6.64289C8.56932 7.44344 6.89816 7.3925 6.89816 7.3925V7.57444V8.12027C6.89654 8.19235 6.91362 8.26363 6.94777 8.32733C6.98192 8.39103 7.032 8.44502 7.09325 8.48416L7.14478 8.51509C7.72086 8.81712 8.93558 9.1337 8.95767 9.14461C9.18341 9.20476 9.40528 9.27828 9.62209 9.36477C10.2129 9.01361 10.6712 8.78437 10.8239 8.71159C10.8405 8.70368 10.8545 8.69128 10.8643 8.67582C10.8741 8.66036 10.8792 8.64248 10.8791 8.62426V7.59082C10.7281 7.33727 10.6251 7.05856 10.5755 6.76843C10.4595 6.75933 10.3067 6.5974 10.1411 6.02246C9.91472 5.23465 10.1558 5.11274 10.3583 5.1364C10.32 5.03098 10.2905 4.92267 10.2699 4.81254C10.19 4.47074 10.19 4.11543 10.2699 3.77364C10.3715 3.37046 10.5835 3.00278 10.8828 2.71109C11.0514 2.53361 11.2419 2.37774 11.4497 2.24713C11.6196 2.12914 11.8055 2.03543 12.0018 1.96876C12.1619 1.91657 12.3285 1.88657 12.4969 1.87961C12.9335 1.83246 13.3739 1.92425 13.754 2.1416C14.0061 2.27049 14.218 2.46485 14.3669 2.70381C14.3669 2.70381 15.3828 2.77477 15.0405 4.81618C15.0199 4.92631 14.9904 5.03462 14.9521 5.14004C15.1546 5.12184 15.3939 5.23828 15.1693 6.0261C15.0037 6.60286 14.8509 6.76297 14.735 6.77207C14.6842 7.0616 14.5794 7.33926 14.4258 7.59082V8.62789C14.4257 8.64612 14.4308 8.664 14.4406 8.67946C14.4504 8.69491 14.4644 8.70732 14.481 8.71523C15.5932 9.26581 16.6421 9.93314 17.6098 10.7057C17.7307 10.8031 17.8283 10.9257 17.8958 11.0647C17.9632 11.2037 17.9988 11.3557 18 11.5099Z" fill="black" />
              </svg>