<svg  width="14" height="14" viewBox="0 0 10 10" fill="none" xmlns="http://www.w3.org/2000/svg">
                  <circle cx="5" cy="5" r="5" fill="#E8E8EE" />
                  <path d="M3 3.59016H3.79535C3.84651 3.0041 4.29302 2.63934 4.99535 2.63934C5.68837 2.63934 6.13488 3.0123 6.13488 3.52049C6.13488 3.95902 5.92558 4.21721 5.38605 4.5082C4.74884 4.84426 4.45116 5.21311 4.45581 5.7541V6.13115H5.26977V5.86475C5.26977 5.43443 5.43721 5.20492 6.02791 4.89754C6.62326 4.58197 7 4.12705 7 3.48361C7 2.63934 6.2 2 5.02791 2C3.72093 2 3.05116 2.70492 3 3.59016ZM4.86512 8C5.16744 8 5.39535 7.79508 5.39535 7.53279C5.39535 7.26639 5.16744 7.06557 4.86512 7.06557C4.56744 7.06557 4.33488 7.26639 4.33488 7.53279C4.33488 7.79508 4.56744 8 4.86512 8Z" fill="#F6F6F9" />
                </svg>