<svg width="13" height="16" viewBox="0 0 13 12" fill="none" xmlns="http://www.w3.org/2000/svg">
                      <path fill-rule="evenodd" clip-rule="evenodd" d="M11.2262 2.55869C11.7594 2.22313 12.1684 1.69107 12.3604 1.05724C11.8613 1.36872 11.3097 1.59397 10.7211 1.71592C10.2515 1.18774 9.5803 0.858398 8.83747 0.858398C7.41234 0.858398 6.25746 2.074 6.25746 3.57311C6.25746 3.78594 6.27888 3.99333 6.32318 4.1914C4.17884 4.07799 2.27744 2.99832 1.00368 1.35474C0.781422 1.75709 0.654415 2.22313 0.654415 2.72025C0.654415 3.66166 1.11001 4.49277 1.80264 4.98057C1.37953 4.96658 0.981531 4.84308 0.633002 4.64113V4.67453C0.633002 5.99033 1.52205 7.08786 2.70424 7.33642C2.48715 7.40012 2.25972 7.43196 2.02343 7.43196C1.85728 7.43196 1.69483 7.41565 1.53829 7.3838C1.86615 8.46192 2.81943 9.24798 3.9492 9.26895C3.06532 9.99754 1.95254 10.431 0.743763 10.431C0.535532 10.431 0.329515 10.4193 0.12793 10.3937C1.27025 11.1634 2.62671 11.6132 4.08433 11.6132C8.8323 11.6132 11.4271 7.47623 11.4271 3.88847C11.4271 3.7704 11.4256 3.65311 11.4204 3.53738C11.9248 3.15445 12.3634 2.67597 12.7082 2.13148C12.2452 2.34741 11.7475 2.49344 11.2262 2.55869Z" fill="white" />
                    </svg>