<svg width="19" height="16" viewBox="0 0 19 14" fill="none" xmlns="http://www.w3.org/2000/svg">
                      <path d="M7.61321 13.3342C4.11952 13.27 2.92626 13.2123 2.1928 13.0616C1.69657 12.9614 1.26535 12.7391 0.949166 12.4166C0.704795 12.1726 0.510456 11.8002 0.359681 11.2835C0.230348 10.8531 0.179976 10.495 0.108162 9.62018C-0.00177044 7.6459 -0.0279773 6.03178 0.108162 4.22825C0.220478 3.23229 0.274934 2.04996 1.02098 1.36018C1.37324 1.03736 1.78302 0.829612 2.24318 0.74373C2.96199 0.607608 6.02446 0.5 9.19481 0.5C12.358 0.5 15.4273 0.607608 16.1468 0.74373C16.7216 0.851338 17.2608 1.17382 17.5773 1.58966C18.258 2.65759 18.2699 3.98554 18.339 5.02428C18.3676 5.5192 18.3676 8.32957 18.339 8.82449C18.2314 10.4661 18.145 11.0469 17.9006 11.6491C17.7495 12.0293 17.6205 12.2299 17.3972 12.4523C17.0471 12.7944 16.6007 13.022 16.1175 13.1047C13.0942 13.3315 10.5269 13.3807 7.61321 13.3342ZM12.243 6.73785C10.561 5.84135 8.95044 5.01002 7.30417 4.1495V9.2977C9.03655 8.35842 10.8629 7.4979 12.2501 6.73072L12.243 6.73785Z" fill="white" />
                    </svg>